HIERARCHY
ROOT Hips
{
	OFFSET 0.000000 0.000000 0.000000
	CHANNELS 6 Xposition Yposition Zposition Xrotation Yrotation Zrotation
	JOINT LeftUpLeg_virtual
	{
		OFFSET 0.000000 0.000000 0.000000
		CHANNELS 3 Xrotation Yrotation Zrotation
		JOINT LeftUpLeg
		{
			OFFSET 11.394100 -6.187798 -0.413800
			CHANNELS 3 Xrotation Yrotation Zrotation
			JOINT LeftLeg
			{
				OFFSET 0.430247 -32.302673 3.732800
				CHANNELS 3 Xrotation Yrotation Zrotation
				JOINT LeftFoot
				{
					OFFSET -0.430247 -48.264931 -6.423300
					CHANNELS 3 Xrotation Yrotation Zrotation
					JOINT LeftToeBase
					{
						OFFSET 4.230900 -16.068199 23.438400
						CHANNELS 3 Xrotation Yrotation Zrotation
						JOINT LeftToe_End
						{
							OFFSET 4.510700 0.695400 19.974600
							CHANNELS 3 Xrotation Yrotation Zrotation
							End Site
							{
								OFFSET 0 0 0
							}
						}
					}
				}
			}
		}
	}
	JOINT RightUpLeg_virtual
	{
		OFFSET 0.000000 0.000000 0.000000
		CHANNELS 3 Xrotation Yrotation Zrotation
		JOINT RightUpLeg
		{
			OFFSET -11.333700 -6.187798 -0.413800
			CHANNELS 3 Xrotation Yrotation Zrotation
			JOINT RightLeg
			{
				OFFSET -0.430392 -32.302628 3.733000
				CHANNELS 3 Xrotation Yrotation Zrotation
				JOINT RightFoot
				{
					OFFSET 0.430392 -48.264973 -6.423500
					CHANNELS 3 Xrotation Yrotation Zrotation
					JOINT RightToeBase
					{
						OFFSET -4.230900 -16.068199 23.438400
						CHANNELS 3 Xrotation Yrotation Zrotation
						JOINT RightToe_End
						{
							OFFSET -4.510700 0.695400 19.974600
							CHANNELS 3 Xrotation Yrotation Zrotation
							End Site
							{
								OFFSET 0 0 0
							}
						}
					}
				}
			}
		}
	}
	JOINT Spine_virtual
	{
		OFFSET 0.000000 0.000000 0.000000
		CHANNELS 3 Xrotation Yrotation Zrotation
		JOINT Spine
		{
			OFFSET -0.002400 12.777504 0.315300
			CHANNELS 3 Xrotation Yrotation Zrotation
			JOINT Spine1
			{
				OFFSET -0.002067 5.816869 0.032633
				CHANNELS 3 Xrotation Yrotation Zrotation
				JOINT Spine1_split
				{
					OFFSET -0.002067 5.816869 0.032633
					CHANNELS 3 Xrotation Yrotation Zrotation
					JOINT Spine2
					{
						OFFSET -0.002067 5.816869 0.032633
						CHANNELS 3 Xrotation Yrotation Zrotation
						JOINT Neck_virtual
						{
							OFFSET 0.000000 0.000000 0.000000
							CHANNELS 3 Xrotation Yrotation Zrotation
							JOINT Neck
							{
								OFFSET -0.003700 21.199493 -0.826900
								CHANNELS 3 Xrotation Yrotation Zrotation
								JOINT Head
								{
									OFFSET 0.000000 20.442200 4.834800
									CHANNELS 3 Xrotation Yrotation Zrotation
									JOINT HeadTop_End
									{
										OFFSET 0.000000 34.668396 4.968400
										CHANNELS 3 Xrotation Yrotation Zrotation
										End Site
										{
											OFFSET 0 0 0
										}
									}
								}
							}
						}
						JOINT LeftShoulder_virtual
						{
							OFFSET 0.000000 0.000000 0.000000
							CHANNELS 3 Xrotation Yrotation Zrotation
							JOINT LeftShoulder
							{
								OFFSET 3.288150 8.794197 -1.372250
								CHANNELS 3 Xrotation Yrotation Zrotation
								JOINT LeftShoulder_split
								{
									OFFSET 3.288150 8.794197 -1.372250
									CHANNELS 3 Xrotation Yrotation Zrotation
									JOINT LeftArm
									{
										OFFSET 11.953299 -2.279007 -0.146200
										CHANNELS 3 Xrotation Yrotation Zrotation
										JOINT LeftForeArm
										{
											OFFSET 18.448900 0.000000 0.000000
											CHANNELS 3 Xrotation Yrotation Zrotation
											JOINT LeftHand
											{
												OFFSET 29.527798 0.000000 0.000000
												CHANNELS 3 Xrotation Yrotation Zrotation
												End Site
												{
													OFFSET 0 0 0
												}
											}
										}
									}
								}
							}
						}
						JOINT RightShoulder_virtual
						{
							OFFSET 0.000000 0.000000 0.000000
							CHANNELS 3 Xrotation Yrotation Zrotation
							JOINT RightShoulder
							{
								OFFSET -3.249400 8.794197 -1.372250
								CHANNELS 3 Xrotation Yrotation Zrotation
								JOINT RightShoulder_split
								{
									OFFSET -3.249400 8.794197 -1.372250
									CHANNELS 3 Xrotation Yrotation Zrotation
									JOINT RightArm
									{
										OFFSET -11.953299 -2.279007 -0.146200
										CHANNELS 3 Xrotation Yrotation Zrotation
										JOINT RightForeArm
										{
											OFFSET -18.448900 0.000000 0.000000
											CHANNELS 3 Xrotation Yrotation Zrotation
											JOINT RightHand
											{
												OFFSET -29.527802 0.000000 0.000000
												CHANNELS 3 Xrotation Yrotation Zrotation
												End Site
												{
													OFFSET 0 0 0
												}
											}
										}
									}
								}
							}
						}
					}
				}
			}
		}
	}
}
MOTION
Frames: 10
Frame Time: 0.03333333
-2.825837 90.499344 0.429085 0.000000 0.000000 0.000000 50.775322 -72.536759 51.953708 -56.782078 2.390627 -1.885431 43.439265 -7.085455 2.460009 0.869458 -0.756034 1.078111 0.817260 1.689026 -0.810389 0.000000 0.000000 0.000000 55.181672 -73.441138 57.069745 -46.372190 -1.959097 -19.317344 40.413024 -6.214679 -2.177587 -7.951262 -0.585990 14.536227 -0.366806 0.612502 -0.044604 0.000000 0.000000 0.000000 52.609710 -71.498536 52.807024 6.197375 3.358219 4.476671 13.165473 6.736768 6.561350 0.533350 -1.102322 0.609427 0.000000 0.000000 0.000000 12.138278 6.553645 6.256591 1.734327 -0.689253 2.073690 8.641823 4.802864 -5.516778 0.000000 0.000000 0.000000 12.723102 6.536203 6.270814 1.526324 -2.043439 -10.014668 0.787023 1.586448 -0.878656 -52.471255 -25.380291 -93.594028 -0.703684 -24.258030 -0.044485 0.000000 0.000000 0.000000 12.083037 6.720041 6.400453 0.934004 12.720062 22.433722 -6.539971 -0.434877 -0.443565 -52.866620 22.562379 73.039680 0.289332 5.933573 1.422810 0.000000 0.000000 0.000000 
-2.807000 90.495834 0.549824 0.000000 0.000000 0.000000 50.981690 -72.580158 52.142713 -56.846326 2.434209 -1.906289 43.419994 -7.038186 2.481873 0.901980 -0.706591 1.051066 0.814386 1.690044 -0.806872 0.000000 0.000000 0.000000 55.154321 -73.429854 57.030188 -46.324703 -1.942946 -19.317706 40.337782 -6.218054 -2.183003 -7.917296 -0.630638 14.501899 -0.360172 0.615649 -0.037099 0.000000 0.000000 0.000000 52.589718 -71.500059 52.768464 6.147935 3.358982 4.473510 13.206418 6.719697 6.538481 0.547636 -1.140294 0.594572 0.000000 0.000000 0.000000 12.158021 6.544811 6.251951 1.727360 -0.658948 2.077304 8.582620 4.855882 -5.545491 0.000000 0.000000 0.000000 12.716509 6.522731 6.275757 1.537397 -2.020991 -10.049035 0.814927 1.550487 -0.842313 -52.442930 -25.403398 -93.571194 -0.715288 -24.227501 -0.073399 0.000000 0.000000 0.000000 12.070356 6.689209 6.398820 0.957079 12.661555 22.402662 -6.495953 -0.387150 -0.422244 -52.742748 22.392927 73.018561 0.247781 6.234138 1.446904 0.000000 0.000000 0.000000 
-2.774353 90.512016 0.705372 0.000000 0.000000 0.000000 51.169875 -72.581688 52.300558 -56.890189 2.421089 -1.956939 43.379057 -7.025306 2.482625 0.897959 -0.686604 1.035646 0.803723 1.704000 -0.820723 0.000000 0.000000 0.000000 55.088730 -73.389187 56.943861 -46.285224 -1.960638 -19.362874 40.285245 -6.218574 -2.173392 -7.910245 -0.691269 14.488957 -0.348566 0.620945 0.000565 0.000000 0.000000 0.000000 52.564470 -71.469269 52.703669 6.085970 3.365549 4.471975 13.259114 6.715189 6.496623 0.585485 -1.097767 0.607482 0.000000 0.000000 0.000000 12.188117 6.541764 6.223441 1.723643 -0.600151 2.047354 8.404619 5.050920 -5.585504 0.000000 0.000000 0.000000 12.725586 6.519034 6.258939 1.552847 -2.015876 -10.081113 0.824940 1.494381 -0.797399 -52.337240 -25.449121 -93.528683 -0.715580 -24.238574 -0.091734 0.000000 0.000000 0.000000 12.091667 6.669676 6.369131 0.977808 12.594023 22.362599 -6.431251 -0.338728 -0.392305 -52.269798 22.431226 72.876158 0.206749 7.013217 1.458880 0.000000 0.000000 0.000000 
-2.731789 90.535248 0.883224 0.000000 0.000000 0.000000 51.294669 -72.547209 52.383999 -56.916219 2.364418 -2.035498 43.333046 -6.997516 2.452099 0.878696 -0.663052 1.072803 0.811086 1.731681 -0.863256 0.000000 0.000000 0.000000 54.957369 -73.310449 56.780175 -46.260731 -2.005289 -19.451376 40.248908 -6.215634 -2.148540 -7.930639 -0.764893 14.493276 -0.307322 0.634020 0.059234 0.000000 0.000000 0.000000 52.518294 -71.409901 52.603730 6.023552 3.375600 4.469360 13.316568 6.718429 6.442821 0.627111 -1.024781 0.625900 0.000000 0.000000 0.000000 12.228543 6.539686 6.178800 1.721659 -0.519441 1.992544 8.135687 5.372416 -5.630750 0.000000 0.000000 0.000000 12.748880 6.519350 6.225026 1.571249 -2.020999 -10.106691 0.808746 1.434411 -0.776783 -52.186009 -25.535859 -93.463291 -0.703453 -24.324313 -0.101076 0.000000 0.000000 0.000000 12.134775 6.658836 6.319769 0.987207 12.526730 22.310261 -6.384626 -0.277166 -0.357167 -51.548425 22.684978 72.644977 0.182578 8.004300 1.452889 0.000000 0.000000 0.000000 
-2.678274 90.549629 1.095997 0.000000 0.000000 0.000000 51.429856 -72.489617 52.453988 -56.946231 2.308269 -2.130232 43.300356 -6.895115 2.386782 0.838668 -0.603082 1.221332 0.855544 1.765652 -0.934050 0.000000 0.000000 0.000000 54.843082 -73.207955 56.610992 -46.249957 -2.064201 -19.568456 40.205208 -6.209287 -2.114192 -7.999372 -0.854515 14.493661 -0.193925 0.651724 0.126183 0.000000 0.000000 0.000000 52.483867 -71.333335 52.504381 5.967745 3.387062 4.463820 13.377419 6.723684 6.381392 0.664947 -0.942144 0.641459 0.000000 0.000000 0.000000 12.275207 6.532779 6.125453 1.719672 -0.425001 1.906837 7.805653 5.783795 -5.663746 0.000000 0.000000 0.000000 12.783868 6.516843 6.179419 1.589622 -2.031385 -10.122422 0.788422 1.375473 -0.802772 -52.028488 -25.691359 -93.367914 -0.670986 -24.511609 -0.101447 0.000000 0.000000 0.000000 12.184906 6.651366 6.260343 0.980381 12.468550 22.250011 -6.356878 -0.192937 -0.322646 -50.728242 23.099486 72.358191 0.182355 8.953107 1.429745 0.000000 0.000000 0.000000 
-2.613113 90.541466 1.312229 0.000000 0.000000 0.000000 51.624229 -72.413392 52.552131 -56.998581 2.274985 -2.219704 43.332629 -6.706205 2.302658 0.822489 -0.510074 1.480324 0.883964 1.801151 -1.008691 0.000000 0.000000 0.000000 54.846685 -73.118582 56.539343 -46.256466 -2.109776 -19.697736 40.166365 -6.190141 -2.080606 -8.086673 -0.955383 14.506862 -0.027241 0.667729 0.178264 0.000000 0.000000 0.000000 52.451222 -71.256331 52.408766 5.920341 3.393486 4.451100 13.437385 6.722146 6.312507 0.671704 -0.893807 0.629342 0.000000 0.000000 0.000000 12.321171 6.515047 6.067424 1.718704 -0.323459 1.789322 7.447004 6.252703 -5.667466 0.000000 0.000000 0.000000 12.825279 6.506444 6.123363 1.606138 -2.041902 -10.132485 0.789084 1.301834 -0.845762 -51.902744 -25.946253 -93.240517 -0.621702 -24.823025 -0.098699 0.000000 0.000000 0.000000 12.232253 6.642648 6.196336 0.954689 12.425328 22.176726 -6.340814 -0.114330 -0.281497 -49.951844 23.578438 72.055484 0.204474 9.695590 1.394501 0.000000 0.000000 0.000000 
-2.537043 90.507248 1.554562 0.000000 0.000000 0.000000 51.870550 -72.335030 52.686338 -57.104179 2.293347 -2.283629 43.475520 -6.479761 2.215365 0.871024 -0.416135 1.815128 0.881141 1.829273 -1.062854 0.000000 0.000000 0.000000 54.954906 -73.042562 56.557282 -46.304660 -2.089182 -19.830319 40.145625 -6.129170 -2.062728 -8.096843 -1.041057 14.623160 0.040314 0.678198 0.179172 0.000000 0.000000 0.000000 52.387841 -71.178002 52.288004 5.885032 3.388616 4.422978 13.495692 6.706083 6.235800 0.633401 -0.883335 0.597309 0.000000 0.000000 0.000000 12.361998 6.485808 6.007332 1.716367 -0.229959 1.638886 7.073010 6.735504 -5.627895 0.000000 0.000000 0.000000 12.868356 6.486388 6.057470 1.616633 -2.061357 -10.139666 0.817272 1.226597 -0.878523 -51.807029 -26.323095 -93.068957 -0.557343 -25.257143 -0.101749 0.000000 0.000000 0.000000 12.270911 6.628366 6.129288 0.914912 12.392806 22.090039 -6.321847 -0.046410 -0.241877 -49.266868 24.021398 71.778601 0.236890 10.241572 1.354173 0.000000 0.000000 0.000000 
-2.455633 90.448166 1.801865 0.000000 0.000000 0.000000 52.081903 -72.254269 52.779764 -57.285729 2.376171 -2.317683 43.734483 -6.260948 2.126796 0.970014 -0.369530 2.189066 0.873089 1.840193 -1.079847 0.000000 0.000000 0.000000 55.134018 -72.972430 56.636663 -46.397984 -1.955919 -19.933311 40.188833 -6.014334 -2.064992 -7.968415 -1.105900 14.887825 -0.047728 0.675268 0.126395 0.000000 0.000000 0.000000 52.305343 -71.099121 52.146223 5.873310 3.372580 4.379126 13.546193 6.679975 6.153726 0.576877 -0.855573 0.567392 0.000000 0.000000 0.000000 12.395493 6.446424 5.945129 1.711907 -0.158361 1.459740 6.693478 7.182572 -5.542761 0.000000 0.000000 0.000000 12.907542 6.459907 5.982460 1.617608 -2.097935 -10.160122 0.850530 1.176414 -0.880737 -51.701137 -26.820181 -92.833746 -0.489782 -25.793251 -0.120979 0.000000 0.000000 0.000000 12.301621 6.606330 6.056896 0.871394 12.365021 21.981582 -6.264219 -0.004900 -0.227414 -48.665620 24.365248 71.529177 0.272543 10.741627 1.326174 0.000000 0.000000 0.000000 
-2.364401 90.372910 2.060192 0.000000 0.000000 0.000000 52.172936 -72.172130 52.758884 -57.514523 2.487428 -2.337768 44.055188 -6.096724 2.037667 1.112962 -0.391368 2.548830 0.853070 1.841495 -1.027994 0.000000 0.000000 0.000000 55.378392 -72.883111 56.757318 -46.516433 -1.709374 -19.992356 40.317254 -5.889267 -2.078634 -7.752943 -1.174478 15.213345 -0.117056 0.669759 0.053808 0.000000 0.000000 0.000000 52.242047 -71.021099 52.004927 5.881961 3.351131 4.321021 13.585350 6.648949 6.072211 0.519856 -0.830159 0.562210 0.000000 0.000000 0.000000 12.427359 6.402036 5.882904 1.708916 -0.116483 1.273064 6.317524 7.568425 -5.415658 0.000000 0.000000 0.000000 12.942105 6.428850 5.899372 1.608649 -2.162304 -10.193878 0.881676 1.178927 -0.867236 -51.564151 -27.400871 -92.528395 -0.439421 -26.393656 -0.166350 0.000000 0.000000 0.000000 12.332758 6.579845 5.980610 0.831982 12.336881 21.839231 -6.172675 -0.004303 -0.240548 -48.108079 24.584378 71.306410 0.299916 11.329486 1.314894 0.000000 0.000000 0.000000 
-2.266681 90.295609 2.338566 0.000000 0.000000 0.000000 52.181153 -72.098446 52.659249 -57.731354 2.621518 -2.357128 44.320725 -5.963555 1.914011 1.230048 -0.453624 2.913297 0.862619 1.838464 -0.926778 0.000000 0.000000 0.000000 55.649427 -72.782612 56.886757 -46.649991 -1.382964 -20.018248 40.464534 -5.796896 -2.100587 -7.582564 -1.280208 15.473927 -0.043741 0.678708 -0.003641 0.000000 0.000000 0.000000 52.287219 -70.953276 51.947673 5.901491 3.335689 4.249116 13.618985 6.619967 5.997639 0.518470 -0.807031 0.588921 0.000000 0.000000 0.000000 12.469109 6.360235 5.822224 1.703861 -0.113566 1.097065 5.942466 7.881812 -5.257888 0.000000 0.000000 0.000000 12.980496 6.395713 5.813847 1.591303 -2.259407 -10.238920 0.891201 1.223912 -0.861744 -51.355912 -28.011900 -92.147230 -0.407806 -27.028109 -0.234710 0.000000 0.000000 0.000000 12.371616 6.554467 5.908625 0.803623 12.296443 21.669851 -6.059530 -0.021857 -0.281530 -47.554970 24.720459 71.105322 0.309844 12.060567 1.314427 0.000000 0.000000 0.000000 
